REM DIRINDEX 1
REM DIRNAME folder01
TITLE ""
FILE "35_dokkai_2_q45_49.mp3" MP3
  TRACK 01 AUDIO
    TITLE "0:"
    INDEX 01 00:00:00
  TRACK 02 AUDIO
    TITLE "1:cjc118_1862"
    INDEX 01 00:00:13
  TRACK 03 AUDIO
    TITLE "1:cjc118_1863"
    INDEX 01 00:06:63
  TRACK 04 AUDIO
    TITLE "1:cjc118_1864"
    INDEX 01 00:15:42
  TRACK 05 AUDIO
    TITLE "1:cjc118_1865"
    INDEX 01 00:17:39
  TRACK 06 AUDIO
    TITLE "1:cjc118_1866"
    INDEX 01 00:24:57
  TRACK 07 AUDIO
    TITLE "1:cjc118_1867"
    INDEX 01 00:27:18
  TRACK 08 AUDIO
    TITLE "1:cjc118_1868"
    INDEX 01 00:28:47
  TRACK 09 AUDIO
    TITLE "1:cjc118_1869"
    INDEX 01 00:33:60
  TRACK 10 AUDIO
    TITLE "1:cjc118_1870"
    INDEX 01 00:35:19
  TRACK 11 AUDIO
    TITLE "1:cjc118_1871"
    INDEX 01 00:40:38
  TRACK 12 AUDIO
    TITLE "1:cjc118_1872"
    INDEX 01 00:41:67
  TRACK 13 AUDIO
    TITLE "1:cjc118_1873"
    INDEX 01 00:47:30
  TRACK 14 AUDIO
    TITLE "1:cjc118_1874"
    INDEX 01 00:48:71
  TRACK 15 AUDIO
    TITLE "1:cjc118_1875"
    INDEX 01 00:55:22
  TRACK 16 AUDIO
    TITLE "1:cjc118_1876"
    INDEX 01 00:57:41
  TRACK 17 AUDIO
    TITLE "1:cjc118_1877"
    INDEX 01 01:05:30
  TRACK 18 AUDIO
    TITLE "1:cjc118_1878"
    INDEX 01 01:11:68
  TRACK 19 AUDIO
    TITLE "1:cjc118_1879"
    INDEX 01 01:15:09
  TRACK 20 AUDIO
    TITLE "1:cjc118_1880"
    INDEX 01 01:16:60
  TRACK 21 AUDIO
    TITLE "1:cjc118_1881"
    INDEX 01 01:28:53
  TRACK 22 AUDIO
    TITLE "1:cjc118_1882"
    INDEX 01 01:31:32
  TRACK 23 AUDIO
    TITLE "1:cjc118_1883"
    INDEX 01 01:34:05
  TRACK 24 AUDIO
    TITLE "1:cjc118_1884"
    INDEX 01 01:38:34
  TRACK 25 AUDIO
    TITLE "1:cjc118_1885"
    INDEX 01 01:40:03
  TRACK 26 AUDIO
    TITLE "1:cjc118_1886"
    INDEX 01 01:47:58
  TRACK 27 AUDIO
    TITLE "1:cjc118_1887"
    INDEX 01 01:55:44
  TRACK 28 AUDIO
    TITLE "1:cjc118_1888"
    INDEX 01 02:00:31
  TRACK 29 AUDIO
    TITLE "1:cjc118_1889"
    INDEX 01 02:05:33
  TRACK 30 AUDIO
    TITLE "1:cjc118_1890"
    INDEX 01 02:13:71
  TRACK 31 AUDIO
    TITLE "1:cjc118_1891"
    INDEX 01 02:22:25
  TRACK 32 AUDIO
    TITLE "1:cjc118_1892"
    INDEX 01 02:23:34
  TRACK 33 AUDIO
    TITLE "1:cjc118_1893"
    INDEX 01 02:25:02
  TRACK 34 AUDIO
    TITLE "1:cjc118_1894"
    INDEX 01 02:30:27
  TRACK 35 AUDIO
    TITLE "1:cjc118_1895"
    INDEX 01 02:35:61
  TRACK 36 AUDIO
    TITLE "1:cjc118_1896"
    INDEX 01 02:38:42
  TRACK 37 AUDIO
    TITLE "1:cjc118_1897"
    INDEX 01 02:41:48
  TRACK 38 AUDIO
    TITLE "1:cjc118_1898"
    INDEX 01 02:43:49
  TRACK 39 AUDIO
    TITLE "1:cjc118_1899"
    INDEX 01 02:46:41
  TRACK 40 AUDIO
    TITLE "1:cjc118_1900"
    INDEX 01 02:50:27
  TRACK 41 AUDIO
    TITLE "1:cjc118_1901"
    INDEX 01 02:55:58
  TRACK 42 AUDIO
    TITLE "1:cjc118_1902"
    INDEX 01 03:01:02
  TRACK 43 AUDIO
    TITLE "1:cjc118_1903"
    INDEX 01 03:04:67
  TRACK 44 AUDIO
    TITLE "1:cjc118_1904"
    INDEX 01 03:11:20
  TRACK 45 AUDIO
    TITLE "1:cjc118_1905"
    INDEX 01 03:19:05
  TRACK 46 AUDIO
    TITLE "1:cjc118_1906"
    INDEX 01 03:23:39
  TRACK 47 AUDIO
    TITLE "1:cjc118_1907"
    INDEX 01 03:28:40
  TRACK 48 AUDIO
    TITLE "1:cjc118_1908"
    INDEX 01 03:30:21
  TRACK 49 AUDIO
    TITLE "1:cjc118_1909"
    INDEX 01 03:31:52
  TRACK 50 AUDIO
    TITLE "1:cjc118_1910"
    INDEX 01 03:35:57
  TRACK 51 AUDIO
    TITLE "1:cjc118_1911"
    INDEX 01 03:36:63
  TRACK 52 AUDIO
    TITLE "1:cjc118_1912"
    INDEX 01 03:38:24
  TRACK 53 AUDIO
    TITLE "1:cjc118_1913"
    INDEX 01 03:39:30
  TRACK 54 AUDIO
    TITLE "1:cjc118_1914"
    INDEX 01 03:41:05
  TRACK 55 AUDIO
    TITLE "1:cjc118_1915"
    INDEX 01 03:42:20
  TRACK 56 AUDIO
    TITLE "1:cjc118_1916"
    INDEX 01 03:44:11
  TRACK 57 AUDIO
    TITLE "1:cjc118_1917"
    INDEX 01 03:45:17
  TRACK 58 AUDIO
    TITLE "1:cjc118_1918"
    INDEX 01 03:46:47
  TRACK 59 AUDIO
    TITLE "1:cjc118_1919"
    INDEX 01 03:48:29
  TRACK 60 AUDIO
    TITLE "1:cjc118_1920"
    INDEX 01 03:50:02
  TRACK 61 AUDIO
    TITLE "1:cjc118_1921"
    INDEX 01 03:52:46
  TRACK 62 AUDIO
    TITLE "1:cjc118_1922"
    INDEX 01 03:53:53
  TRACK 63 AUDIO
    TITLE "1:cjc118_1923"
    INDEX 01 03:57:00
  TRACK 64 AUDIO
    TITLE "1:cjc118_1924"
    INDEX 01 03:57:73
  TRACK 65 AUDIO
    TITLE "1:cjc118_1925"
    INDEX 01 04:01:29
  TRACK 66 AUDIO
    TITLE "1:cjc118_1926"
    INDEX 01 04:02:31
  TRACK 67 AUDIO
    TITLE "1:cjc118_1927"
    INDEX 01 04:05:60
  TRACK 68 AUDIO
    TITLE "1:cjc118_1928"
    INDEX 01 04:06:62
  TRACK 69 AUDIO
    TITLE "1:cjc118_1929"
    INDEX 01 04:09:60
  TRACK 70 AUDIO
    TITLE "1:cjc118_1930"
    INDEX 01 04:11:38
  TRACK 71 AUDIO
    TITLE "1:cjc118_1931"
    INDEX 01 04:12:70
  TRACK 72 AUDIO
    TITLE "1:cjc118_1932"
    INDEX 01 04:18:65
  TRACK 73 AUDIO
    TITLE "1:cjc118_1933"
    INDEX 01 04:19:64
  TRACK 74 AUDIO
    TITLE "1:cjc118_1934"
    INDEX 01 04:21:44
  TRACK 75 AUDIO
    TITLE "1:cjc118_1935"
    INDEX 01 04:22:47
  TRACK 76 AUDIO
    TITLE "1:cjc118_1936"
    INDEX 01 04:24:32
  TRACK 77 AUDIO
    TITLE "1:cjc118_1937"
    INDEX 01 04:25:44
  TRACK 78 AUDIO
    TITLE "1:cjc118_1938"
    INDEX 01 04:27:29
  TRACK 79 AUDIO
    TITLE "1:cjc118_1939"
    INDEX 01 04:28:34
  TRACK 80 AUDIO
    TITLE "1:cjc118_1940"
    INDEX 01 04:29:61
  TRACK 81 AUDIO
    TITLE "1:cjc118_1941"
    INDEX 01 04:31:42
  TRACK 82 AUDIO
    TITLE "1:cjc118_1942"
    INDEX 01 04:32:69
  TRACK 83 AUDIO
    TITLE "1:cjc118_1943"
    INDEX 01 04:36:00
  TRACK 84 AUDIO
    TITLE "1:cjc118_1944"
    INDEX 01 04:36:69
  TRACK 85 AUDIO
    TITLE "1:cjc118_1945"
    INDEX 01 04:39:71
  TRACK 86 AUDIO
    TITLE "1:cjc118_1946"
    INDEX 01 04:40:72
  TRACK 87 AUDIO
    TITLE "1:cjc118_1947"
    INDEX 01 04:44:15
  TRACK 88 AUDIO
    TITLE "1:cjc118_1948"
    INDEX 01 04:45:23
  TRACK 89 AUDIO
    TITLE "1:cjc118_1949"
    INDEX 01 04:47:49
  TRACK 90 AUDIO
    TITLE "1:cjc118_1950"
    INDEX 01 04:48:52
  TRACK 91 AUDIO
    TITLE "1:cjc118_1951"
    INDEX 01 04:51:02
  TRACK 92 AUDIO
    TITLE "1:cjc118_1952"
    INDEX 01 04:52:56
  TRACK 93 AUDIO
    TITLE "1:cjc118_1953"
    INDEX 01 04:54:14
  TRACK 94 AUDIO
    TITLE "1:cjc118_1954"
    INDEX 01 04:58:04
  TRACK 95 AUDIO
    TITLE "1:cjc118_1955"
    INDEX 01 04:59:07
  TRACK 96 AUDIO
    TITLE "1:cjc118_1956"
    INDEX 01 05:03:36
  TRACK 97 AUDIO
    TITLE "1:cjc118_1957"
    INDEX 01 05:04:38
  TRACK 98 AUDIO
    TITLE "1:cjc118_1958"
    INDEX 01 05:08:43
  TRACK 99 AUDIO
    TITLE "1:cjc118_1959"
    INDEX 01 05:09:51
  TRACK 100 AUDIO
    TITLE "1:cjc118_1960"
    INDEX 01 05:13:62
  TRACK 101 AUDIO
    TITLE "1:cjc118_1961"
    INDEX 01 05:14:66
  TRACK 102 AUDIO
    TITLE "0:"
    INDEX 01 05:18:18
